# AST/ASF file generated using VICON BodyLanguage
# -----------------------------------------------
:version 1.10
:name VICON
:units
  mass 1.0
  length 0.45
  angle deg
:documentation
   .ast/.asf automatically generated from VICON data using
   VICON BodyBuilder and BodyLanguage model FoxedUp or BRILLIANT.MOD
:root
   order TX TY TZ RX RY RZ
   axis XYZ
   position 0 0 0  
   orientation 0 0 0 
:bonedata
  begin
     id 1 
     name lhipjoint
     direction 0.623415 -0.642378 0.445763 
     length 2.49859 
     axis 0 0 0  XYZ
  end
  begin
     id 2 
     name lfemur
     direction 0.34202 -0.939693 0  
     length 6.69689  
     axis 0 0 20  XYZ
    dof rx ry rz
    limits (-160.0 20.0)
           (-70.0 70.0)
           (-60.0 70.0)
  end
  begin
     id 3 
     name ltibia
     direction 0.34202 -0.939693 0   
     length 7.37574   
     axis 0 0 20   XYZ
    dof rx
    limits (-10.0 170.0)
  end
  begin
     id 4 
     name lfoot
     direction 0.084323 -0.231675 0.969132   
     length 2.09111   
     axis -90 7.62852e-016 20   XYZ
    dof rx rz
    limits (-45.0 90.0)
           (-70.0 20.0)
  end
  begin
     id 5 
     name ltoes
     direction 1.5357e-011 -4.21957e-011 1   
     length 1.04989   
     axis -90 7.62852e-016 20   XYZ
    dof rx
    limits (-90.0 20.0)
  end
  begin
     id 6 
     name rhipjoint
     direction -0.605402 -0.653903 0.45376   
     length 2.45455  
     axis 0 0 0  XYZ 
  end
  begin
     id 7 
     name rfemur
     direction -0.34202 -0.939693 0   
     length 6.64523   
     axis 0 0 -20   XYZ
    dof rx ry rz
    limits (-160.0 20.0)
           (-70.0 70.0)
           (-70.0 60.0)
  end
  begin
     id 8 
     name rtibia
     direction -0.34202 -0.939693 0   
     length 7.3339   
     axis 0 0 -20   XYZ
    dof rx
    limits (-10.0 170.0)
 end
 begin
     id 9 
     name rfoot
     direction -0.120854 -0.332043 0.93549   
     length 2.23135  
     axis -90 -7.62852e-016 -20   XYZ
    dof rx rz
    limits (-45.0 90.0)
           (-20.0 70.0)
  end
  begin
     id 10 
     name rtoes
     direction -1.53563e-011 -4.21914e-011 1   
     length 1.10614   
     axis -90 -7.62852e-016 -20   XYZ
    dof rx
    limits (-90.0 20.0)
  end
  begin
     id 11 
     name lowerback
     direction 0.0319682 0.998615 -0.0417941   
     length 2.02718   
     axis 0 0 0   XYZ
    dof rx ry rz
    limits (-20.0 45.0)
           (-30.0 30.0)
           (-30.0 30.0)
  end
  begin
     id 12 
     name upperback
     direction 7.63181e-005 0.995808 0.0914691   
     length 1.97539   
     axis 0 0 0   XYZ
    dof rx ry rz
    limits (-20.0 45.0)
           (-30.0 30.0)
           (-30.0 30.0)
  end
  begin
     id 13 
     name thorax
     direction -0.016423 0.993627 0.111514   
     length 2.00349   
     axis 0 0 0   XYZ
    dof rx ry rz
    limits (-20.0 45.0)
           (-30.0 30.0)
           (-30.0 30.0)
  end
  begin
     id 14 
     name lowerneck
     direction -0.174763 0.981668 -0.0760716   
     length 1.71436   
     axis 0 0 0   XYZ
    dof rx ry rz
    limits (-20.0 45.0)
           (-30.0 30.0)
           (-30.0 30.0)
  end
  begin
     id 15 
     name upperneck
     direction 0.345458 0.934587 -0.0848868   
     length 1.72805   
     axis 0 0 0   XYZ
    dof rx ry rz
    limits (-20.0 45.0)
           (-30.0 30.0)
           (-30.0 30.0)
  end
  begin
     id 16
     name head
     direction 0.13001 0.989848 -0.0574291  
     length 1.767  
     axis 0 0 0   XYZ
    dof rx ry rz
    limits (-20.0 45.0)
           (-30.0 30.0)
           (-30.0 30.0)
  end
  begin
     id 17 
     name lclavicle
     direction 0.952951 0.290122 0.0878234  
     length 3.54654  
     axis 0 0 0   XYZ
    dof ry rz
    limits (-20.0 10.0)
           (0.0 20.0)
  end
  begin
     id 18 
     name lhumerus
     direction 1 -4.48957e-011 -4.56525e-028   
     length 5.19807   
     axis 180 -30 -90   XYZ
    dof rx ry rz
    limits (-60.0 90.0)
           (-90.0 90.0)
           (-90.0 90.0)
  end
  begin
     id 19
     name lradius
     direction 1 -4.48979e-011 -2.0317e-027   
     length 3.0937   
     axis 180 -30 -90   XYZ
    dof rx
    limits (-10.0 170.0)
  end
  begin
     id 20
     name lwrist
     direction 1 -4.48953e-011 -3.05809e-027   
     length 1.54685   
     axis 8.48514e-016 90 90   XYZ
    dof ry
    limits (-180.0 0.0)
 end
  begin
     id 21 
     name lhand
     direction 1 -4.48952e-011 -6.11639e-027   
     length 0.672632   
     axis 3.9013e-015 90 90   XYZ
    dof rx rz
    limits (-90.0 90.0)
           (-45.0 45.0)
  end
  begin
     id 22 
     name lfingers
     direction 1 -4.48925e-011 -1.22426e-026   
     length 0.542293   
     axis 7.80276e-015 90 90   XYZ
    dof rx
    limits (0.0 90.0)
  end
  begin
     id 23
     name lthumb
     direction 0.707107 -6.3486e-011 0.707107   
     length 0.778628   
     axis -90 45 5.37419e-014   XYZ
    dof rx rz
    limits (-45.0 45.0)
           (-45.0 45.0)
  end
  begin
     id 24 
     name rclavicle
     direction -0.960732 0.273675 -0.0457849   
     length 3.52079  
     axis 0 0 0   XYZ 
    dof ry rz
    limits (-10.0 20.0)
           (-20.0 0.0)
  end
  begin
     id 25 
     name rhumerus
     direction -1 -4.48976e-011 -1.63613e-027  
     length 5.45222   
     axis 180 30 90   XYZ
    dof rx ry rz
    limits (-90.0 60.0)
           (-90.0 90.0)
           (-90.0 90.0)
  end
  begin
     id 26 
     name rradius
     direction -1 -4.48957e-011 -7.00033e-028   
     length 3.01284   
     axis 180 30 90   XYZ
    dof rx
    limits (-10.0 170.0)
  end
  begin
     id 27 
     name rwrist
     direction -1 -4.48983e-011 -3.05543e-027   
     length 1.50642   
     axis 8.48514e-016 -90 -90   XYZ
    dof ry
    limits (-180.0 0.0)
  end
  begin
     id 28
     name rhand
     direction -1 -4.48984e-011 -6.11072e-027   
     length 0.622296   
     axis 3.9013e-015 -90 -90   XYZ
    dof rx rz
    limits (-90.0 90.0)
           (-45.0 45.0)
  end
  begin
     id 29
     name rfingers
     direction -1 -4.48865e-011 -1.22637e-026   
     length 0.501711   
     axis 7.80276e-015 -90 -90   XYZ
    dof rx
    limits (0.0 90.0)
  end
  begin
     id 30
     name rthumb
     direction -0.707107 -6.34932e-011 0.707107   
     length 0.72036   
     axis -90 -45 -5.37419e-014   XYZ
    dof rx rz
    limits (-45.0 45.0)
           (-45.0 45.0)
  end
:hierarchy
  begin
    root lhipjoint rhipjoint lowerback
    lhipjoint lfemur
    lfemur ltibia
    ltibia lfoot
    lfoot ltoes
    rhipjoint rfemur
    rfemur rtibia
    rtibia rfoot
    rfoot rtoes
    lowerback upperback
    upperback thorax
    thorax lowerneck lclavicle rclavicle
    lowerneck upperneck
    upperneck head
    lclavicle lhumerus
    lhumerus lradius
    lradius lwrist
    lwrist lhand lthumb
    lhand lfingers
    rclavicle rhumerus
    rhumerus rradius
    rradius rwrist
    rwrist rhand rthumb
    rhand rfingers
  end

#!OML:ASF H:\Not Pregnant\Project 1\Capture day 1\Session 1\non-pregnant.ASF
:FULLY-SPECIFIED
:DEGREES
116
root -4.43532 14.9768 39.1813 159.187 -73.913 -144.343
lowerback -10.0154 3.98317 6.06889
upperback -8.81617 4.3928 0.787441
thorax -3.23924 1.7141 -2.2299
lowerneck 17.6397 -9.60397 -31.9828
upperneck -0.431246 -22.2875 39.8761
head 6.03716 -13.5787 19.4922
rclavicle 1.47101e-014 3.33958e-014
rhumerus -38.5081 -5.7197 -85.9383
rradius 27.2736
rwrist 27.252
rhand -2.89386 7.25557
rfingers 7.12502
rthumb 22.8158 -21.415
lclavicle 1.47101e-014 3.33958e-014
lhumerus -44.4688 -3.30567 80.961
lradius 34.5459
lwrist 36.6835
lhand -10.0733 -11.5761
lfingers 7.12502
lthumb 15.9131 17.7901
rfemur -20.4969 -29.5568 49.5485
rtibia 28.0627
rfoot 7.68499 56.1816
rtoes 43.9009
lfemur -33.7606 11.8766 -31.9072
ltibia 45.5306
lfoot -24.4392 -1.82999
ltoes -8.86099
117
root -4.43699 14.9796 39.104 160.513 -73.8481 -145.63
lowerback -9.97862 4.02812 5.82936
upperback -8.79492 4.47464 0.63652
thorax -3.23278 1.76591 -2.24926
lowerneck 17.6474 -9.5863 -31.9611
upperneck -0.58122 -22.2333 39.9962
head 5.99122 -13.564 19.5667
rclavicle -4.96962e-016 -1.03368e-014
rhumerus -38.4405 -5.28562 -86.3106
rradius 27.4198
rwrist 27.0654
rhand -2.81083 7.29193
rfingers 7.12502
rthumb 22.8955 -21.3688
lclavicle -4.96962e-016 -1.03368e-014
lhumerus -44.3142 -3.24261 80.707
lradius 34.9616
lwrist 36.9077
lhand -10.4791 -11.7195
lfingers 7.12502
lthumb 15.5223 17.6775
rfemur -20.2161 -29.0755 49.4495
rtibia 27.7339
rfoot 7.57706 55.7789
rtoes 43.7236
lfemur -33.723 11.3197 -31.8022
ltibia 45.5216
lfoot -24.4907 -1.23242
ltoes -9.00306
118
root -4.43952 14.9811 39.0256 161.855 -73.7686 -146.919
lowerback -9.97879 4.0682 5.58056
upperback -8.77438 4.54658 0.4857
thorax -3.20872 1.81316 -2.26191
lowerneck 17.6623 -9.56202 -31.9294
upperneck -0.721505 -22.1718 40.1115
head 5.94116 -13.5466 19.6405
rclavicle 2.66371e-014 -7.15625e-015
rhumerus -38.3773 -4.80917 -86.7038
rradius 27.5844
rwrist 26.8439
rhand -2.75156 7.31121
rfingers 7.12502
rthumb 22.9524 -21.3425
lclavicle 2.66371e-014 -7.15625e-015
lhumerus -44.1872 -3.17716 80.447
lradius 35.3943
lwrist 37.1677
lhand -10.8148 -11.8552
lfingers 7.12502
lthumb 15.1989 17.5665
rfemur -19.9538 -28.6442 49.3655
rtibia 27.4115
rfoot 7.54163 55.4379
rtoes 43.5197
lfemur -33.6598 10.7034 -31.6765
ltibia 45.4711
lfoot -24.5887 -0.611321
ltoes -9.19337
119
root -4.44318 14.9821 38.9457 163.26 -73.6845 -148.261
lowerback -10.0187 4.10701 5.30137
upperback -8.75381 4.61518 0.325113
thorax -3.16485 1.86007 -2.26557
lowerneck 17.6813 -9.54175 -31.8849
upperneck -0.849267 -22.1195 40.2225
head 5.8951 -13.5342 19.7081
rclavicle -5.43676e-014 -2.70347e-014
rhumerus -38.3225 -4.23968 -87.1464
rradius 27.7781
rwrist 26.5194
rhand -2.73655 7.28667
rfingers 7.12502
rthumb 22.9668 -21.3652
lclavicle -5.43676e-014 -2.70347e-014
lhumerus -44.0789 -3.12519 80.1849
lradius 35.8332
lwrist 37.4413
lhand -11.0762 -11.9819
lfingers 7.12502
lthumb 14.9471 17.4587
rfemur -19.7089 -28.2801 49.2728
rtibia 27.094
rfoot 7.62805 55.162
rtoes 43.2971
lfemur -33.5738 10.0599 -31.5602
ltibia 45.3848
lfoot -24.7247 0.0173666
ltoes -9.32319
120
root -4.4478 14.9828 38.8622 164.673 -73.5688 -149.613
lowerback -10.091 4.13274 4.96178
upperback -8.73047 4.66801 0.181827
thorax -3.1076 1.90233 -2.21695
lowerneck 17.6914 -9.52266 -31.8338
upperneck -0.945827 -22.0721 40.3152
head 5.85695 -13.5222 19.7631
rclavicle 6.2816e-014 4.21423e-014
rhumerus -38.266 -3.64353 -87.5741
rradius 27.9681
rwrist 26.2266
rhand -2.71343 7.32039
rfingers 7.12502
rthumb 22.989 -21.3287
lclavicle 6.2816e-014 4.21423e-014
lhumerus -44.0003 -3.06493 79.9188
lradius 36.274
lwrist 37.7085
lhand -11.2908 -12.1054
lfingers 7.12502
lthumb 14.7403 17.3505
rfemur -19.4462 -27.9307 49.1839
rtibia 26.7796
rfoot 7.71048 54.9233
rtoes 42.9973
lfemur -33.4666 9.466 -31.4367
ltibia 45.274
lfoot -24.8878 0.639471
ltoes -9.39497
121
root -4.45308 14.9844 38.7771 166.117 -73.4376 -150.978
lowerback -10.1963 4.16047 4.5929
upperback -8.71658 4.7228 0.0382014
thorax -3.04509 1.94599 -2.15029
lowerneck 17.7205 -9.50612 -31.7806
upperneck -1.0268 -22.0392 40.4004
head 5.82411 -13.519 19.8126
rclavicle -4.96962e-015 -1.51076e-014
rhumerus -38.2221 -3.08934 -87.9687
rradius 28.1596
rwrist 25.98
rhand -2.70203 7.37853
rfingers 7.12502
rthumb 22.9999 -21.2692
lclavicle -4.96962e-015 -1.51076e-014
lhumerus -43.9417 -3.00897 79.6586
lradius 36.7042
lwrist 37.9632
lhand -11.447 -12.2159
lfingers 7.12502
lthumb 14.5899 17.251
rfemur -19.2031 -27.5898 49.093
rtibia 26.4711
rfoot 7.83331 54.7067
rtoes 42.6194
lfemur -33.3703 8.91928 -31.3355
ltibia 45.142
lfoot -25.0497 1.25322
ltoes -9.39155
